# xmcd
#
# Track frame offsets:
#	150
#	12495
#	26464
#	42784
#	56544
#	72140
#	88760
#	106364
#	122126
#	136585
#	147784
#	161291
#	177398
#	193468
#
# Disc length: 2756 seconds
#
# Revision: 1
# Processed by: cddbd v1.5.2PL0 Copyright (c) Steve Scherf et al.
# Submitted via: EZCDAudioConverter 8.0.7.1
#
DISCID=bc0ac20e
DTITLE=Fernando and Sorocaba - O Chamado da Floresta
DYEAR=2018
DGENRE=
TTITLE0=Dor de Cotovelo
TTITLE1=Casal Perfeito
TTITLE2=Valeu a Pena (Part. Vitor Kley)
TTITLE3=Só Se Eu Fosse Doido
TTITLE4=Nove Entre Dez
TTITLE5=Cada Um Na Sua
TTITLE6=Bom Rapaz (Part. Jorge and Mateus)
TTITLE7=Minha Menina
TTITLE8=Todo Canto
TTITLE9=Cachaça e Nutella
TTITLE10=Terapinga
TTITLE11=Meu Melhor Lugar (Part. Luan Santana)
TTITLE12=Luzes de São Paulo
TTITLE13=Me Dá o Amor Que Eu Mereço
EXTD=
EXTT0=
EXTT1=
EXTT2=
EXTT3=
EXTT4=
EXTT5=
EXTT6=
EXTT7=
EXTT8=
EXTT9=
EXTT10=
EXTT11=
EXTT12=
EXTT13=
PLAYORDER=
